<?xml version="1.0" ?><!DOCTYPE svg  PUBLIC '-//W3C//DTD SVG 1.1//EN'  'http://www.w3.org/Graphics/SVG/1.1/DTD/svg11.dtd'><svg height="100mm" style="shape-rendering:geometricPrecision; text-rendering:geometricPrecision; image-rendering:optimizeQuality; fill-rule:evenodd; clip-rule:evenodd" viewBox="0 0 100 100" width="100mm" xml:space="preserve" xmlns="http://www.w3.org/2000/svg" xmlns:xlink="http://www.w3.org/1999/xlink"><defs><style type="text/css">
   <![CDATA[
    .fil0 {fill:#008DD2}
   ]]>
  </style></defs><g id="Ebene_x0020_1"><path class="fil0" d="M39.0528 68.7499l0.0096 -25.0001 -7.8029 0 -0.0096 25.0001 7.8029 0zm-3.9195 -29.6876c2.4214,0 3.9289,-1.7372 3.9289,-3.9064 -0.0449,-2.2178 -1.5075,-3.906 -3.8831,-3.906 -2.3761,0 -3.9292,1.6883 -3.9292,3.906 0,2.1692 1.5073,3.9064 3.8381,3.9064l0.0453 0zm8.6167 29.6876l7.8126 0 0 -14.1299c0,-0.7561 0.0523,-1.5124 0.2641,-2.0517 0.5799,-1.5116 2.6203,-3.077 4.8362,-3.077 2.9038,0 4.2745,2.3215 4.2745,5.722l0.0001 13.5367 7.8124 -0.0001 0 -14.5081c0,-7.7719 -3.9577,-11.3879 -9.2367,-11.3879 -4.3283,-0.0001 -6.9482,2.5362 -8.0038,4.263l0.0532 0 0.0098 -3.3671 -7.8126 0c0.1052,2.3739 -0.0098,25.0001 -0.0098,25.0001l0 0zm-28.125 -56.2499l68.7501 0c1.7188,0 3.125,1.4062 3.125,3.125l0 68.75c0,1.7188 -1.4062,3.125 -3.125,3.125l-68.7501 0c-1.7188,0 -3.125,-1.4062 -3.125,-3.125l0 -68.75c0,-1.7188 1.4062,-3.125 3.125,-3.125zm0.0056 3.125c-0.002,0.0016 -0.004,0.0036 -0.0056,0.0056l0 68.7389c0.0016,0.0019 0.0036,0.0039 0.0056,0.0055l68.739 0c0.0019,-0.0016 0.0039,-0.0036 0.0055,-0.0056l0 -68.7389c-0.0016,-0.0019 -0.0036,-0.0039 -0.0056,-0.0055l-68.7389 0z"/></g></svg>